<?xml version="1.0" standalone="no"?>
<!DOCTYPE svg PUBLIC "-//W3C//DTD SVG 20010904//EN"
 "http://www.w3.org/TR/2001/REC-SVG-20010904/DTD/svg10.dtd">
<svg version="1.0" xmlns="http://www.w3.org/2000/svg"
 width="1295.000000pt" height="1295.000000pt" viewBox="0 0 1295.000000 1295.000000"
 preserveAspectRatio="xMidYMid meet">
<metadata>
Created by potrace 1.14, written by Peter Selinger 2001-2017
</metadata>
<g transform="translate(0.000000,1295.000000) scale(0.100000,-0.100000)"
fill="#000000" stroke="none">
<path d="M6440 12658 c-47 -4 -141 -14 -210 -23 -69 -8 -165 -17 -213 -19 -49
-3 -94 -10 -101 -15 -6 -5 -36 -13 -66 -17 -30 -3 -80 -17 -110 -29 -30 -13
-72 -26 -93 -30 -20 -4 -37 -10 -37 -14 0 -4 -41 -15 -91 -25 -51 -10 -104
-25 -118 -32 -14 -8 -32 -14 -39 -14 -8 0 -30 -7 -50 -16 -21 -9 -57 -26 -82
-37 -25 -10 -95 -44 -156 -73 -61 -30 -116 -54 -123 -54 -6 0 -11 -4 -11 -10
0 -5 -7 -10 -15 -10 -17 0 -347 -167 -355 -179 -5 -7 -32 -23 -90 -53 -24 -12
-194 -119 -215 -135 -5 -5 -30 -24 -55 -43 -25 -19 -47 -37 -50 -40 -3 -3 -23
-17 -45 -30 -22 -13 -45 -29 -51 -35 -6 -5 -20 -15 -30 -22 -128 -84 -157
-106 -213 -166 -20 -21 -47 -45 -61 -53 -14 -7 -44 -30 -66 -51 -23 -21 -66
-58 -95 -83 -30 -25 -91 -81 -136 -125 -87 -86 -101 -98 -178 -160 -125 -100
-256 -231 -316 -317 -27 -38 -42 -56 -83 -101 -46 -52 -196 -254 -196 -266 0
-6 -4 -11 -8 -11 -5 0 -15 -12 -23 -27 -8 -16 -16 -30 -19 -33 -9 -9 -102
-163 -148 -245 -77 -137 -139 -265 -205 -420 -68 -161 -77 -190 -72 -220 4
-22 3 -25 -3 -10 -7 16 -13 6 -31 -50 -12 -39 -26 -79 -31 -90 -4 -11 -16 -47
-25 -80 -10 -33 -23 -80 -30 -105 -28 -98 -46 -194 -71 -390 -24 -180 -27
-245 -30 -530 -1 -179 -7 -365 -13 -415 -11 -85 -42 -191 -81 -280 -31 -70
-38 -98 -56 -215 -24 -156 -22 -265 4 -370 12 -47 31 -132 42 -190 11 -58 25
-114 30 -125 12 -23 51 -195 85 -375 67 -344 81 -663 50 -1090 -31 -420 -23
-608 37 -870 22 -96 46 -195 53 -220 8 -25 26 -85 40 -135 56 -189 130 -415
155 -470 9 -22 29 -71 44 -110 15 -38 31 -79 36 -90 45 -102 82 -183 90 -195
41 -64 220 -429 220 -449 0 -5 6 -16 14 -23 12 -13 186 -359 186 -371 0 -3 23
-53 50 -112 28 -59 50 -110 50 -113 0 -4 6 -18 13 -32 7 -14 24 -59 37 -100
19 -62 95 -250 155 -388 8 -18 15 -37 15 -43 0 -6 6 -25 14 -42 8 -18 43 -97
77 -177 67 -156 122 -256 196 -353 48 -65 203 -227 215 -227 7 0 36 -21 63
-47 6 -6 52 -38 101 -70 78 -51 126 -76 199 -103 11 -4 37 -15 58 -24 21 -9
50 -16 65 -16 15 0 45 -7 67 -14 141 -49 808 -60 1090 -17 77 12 165 28 195
37 30 8 80 22 110 30 102 28 270 84 308 103 9 4 46 22 82 39 36 17 101 52 145
77 44 25 92 50 108 56 15 6 27 15 27 19 0 4 12 13 28 19 15 7 45 22 67 35 22
13 72 40 110 61 39 21 75 41 80 45 6 4 55 31 110 60 153 80 224 120 295 163
70 43 77 47 280 157 132 72 351 199 440 256 25 16 54 34 65 41 132 79 181 112
310 209 229 173 307 233 345 268 19 17 97 87 172 154 75 68 170 162 210 210
40 48 87 103 105 122 46 50 127 168 197 285 65 111 73 125 137 240 24 44 52
94 61 110 19 32 184 366 198 400 4 11 17 40 28 65 11 25 23 56 26 70 4 14 11
34 16 45 5 11 20 54 35 95 15 41 30 84 35 95 5 11 16 43 25 70 36 105 105 229
141 253 32 21 40 22 181 16 181 -8 248 1 448 62 152 46 164 52 290 132 157
101 331 262 401 373 77 121 155 267 203 380 27 63 65 149 85 192 20 43 36 80
36 83 0 2 8 23 19 47 34 78 50 122 76 212 15 50 30 99 35 110 5 11 22 70 39
130 138 508 174 757 135 930 -42 189 -84 273 -186 377 -78 79 -120 106 -228
150 -14 6 -32 13 -40 17 -8 4 -40 15 -70 25 -52 17 -63 18 -163 4 l-107 -14 0
215 c-1 485 -10 685 -41 896 -37 254 -50 328 -59 340 -5 6 -16 51 -26 100 -9
50 -22 93 -27 96 -5 4 -7 12 -3 17 4 6 2 19 -3 29 -5 10 -17 61 -27 113 -9 52
-21 100 -25 106 -5 6 -6 14 -2 17 3 4 1 12 -4 19 -5 7 -15 40 -23 73 -7 32
-16 66 -21 75 -4 8 -19 42 -34 75 -14 33 -29 67 -34 75 -4 8 -14 39 -20 68 -7
28 -16 52 -20 52 -4 0 -14 25 -21 55 -7 30 -17 55 -22 55 -4 0 -8 7 -8 15 0
16 -42 124 -60 157 -6 10 -10 23 -10 30 0 20 -107 242 -175 363 -25 44 -59
105 -75 135 -17 30 -41 73 -55 95 -13 22 -31 54 -40 72 -9 18 -23 37 -31 44
-8 6 -14 17 -14 23 0 6 -23 36 -50 66 -28 30 -62 72 -78 95 -15 22 -31 45 -37
51 -5 6 -17 22 -25 34 -39 59 -343 370 -476 487 -32 28 -81 72 -109 97 -81 75
-359 266 -385 266 -6 0 -10 5 -10 10 0 6 -6 10 -14 10 -8 0 -16 4 -18 9 -4 12
-253 173 -330 213 -35 18 -65 36 -68 39 -3 3 -30 17 -60 31 -30 15 -108 51
-173 82 -65 31 -122 56 -127 56 -6 0 -18 4 -28 9 -39 21 -145 60 -272 100 -74
24 -144 47 -155 52 -45 17 -151 43 -365 90 -25 5 -124 18 -220 29 -182 22
-528 25 -720 8z"/>
</g>
</svg>
